<svg xmlns="http://www.w3.org/2000/svg" viewBox="0 0 261 63" fill="currentColor" shape-rendering="crispEdges">
  <rect x="90" y="0" width="9" height="9"/>
  <rect x="216" y="0" width="9" height="9"/>
  <rect x="90" y="9" width="9" height="9"/>
  <rect x="216" y="9" width="9" height="9"/>
  <rect x="0" y="18" width="9" height="9"/>
  <rect x="9" y="18" width="9" height="9"/>
  <rect x="18" y="18" width="9" height="9"/>
  <rect x="36" y="18" width="9" height="9"/>
  <rect x="45" y="18" width="9" height="9"/>
  <rect x="54" y="18" width="9" height="9"/>
  <rect x="72" y="18" width="9" height="9"/>
  <rect x="81" y="18" width="9" height="9"/>
  <rect x="90" y="18" width="9" height="9"/>
  <rect x="108" y="18" width="9" height="9"/>
  <rect x="117" y="18" width="9" height="9"/>
  <rect x="126" y="18" width="9" height="9"/>
  <rect x="135" y="18" width="9" height="9"/>
  <rect x="144" y="18" width="9" height="9"/>
  <rect x="162" y="18" width="9" height="9"/>
  <rect x="171" y="18" width="9" height="9"/>
  <rect x="180" y="18" width="9" height="9"/>
  <rect x="198" y="18" width="9" height="9"/>
  <rect x="207" y="18" width="9" height="9"/>
  <rect x="216" y="18" width="9" height="9"/>
  <rect x="234" y="18" width="9" height="9"/>
  <rect x="243" y="18" width="9" height="9"/>
  <rect x="252" y="18" width="9" height="9"/>
  <rect x="0" y="27" width="9" height="9"/>
  <rect x="18" y="27" width="9" height="9"/>
  <rect x="36" y="27" width="9" height="9"/>
  <rect x="54" y="27" width="9" height="9"/>
  <rect x="72" y="27" width="9" height="9"/>
  <rect x="90" y="27" width="9" height="9"/>
  <rect x="108" y="27" width="9" height="9"/>
  <rect x="126" y="27" width="9" height="9"/>
  <rect x="144" y="27" width="9" height="9"/>
  <rect x="162" y="27" width="9" height="9"/>
  <rect x="180" y="27" width="9" height="9"/>
  <rect x="198" y="27" width="9" height="9"/>
  <rect x="216" y="27" width="9" height="9"/>
  <rect x="234" y="27" width="9" height="9"/>
  <rect x="252" y="27" width="9" height="9"/>
  <rect x="0" y="36" width="9" height="9"/>
  <rect x="9" y="36" width="9" height="9"/>
  <rect x="18" y="36" width="9" height="9"/>
  <rect x="36" y="36" width="9" height="9"/>
  <rect x="45" y="36" width="9" height="9"/>
  <rect x="54" y="36" width="9" height="9"/>
  <rect x="72" y="36" width="9" height="9"/>
  <rect x="81" y="36" width="9" height="9"/>
  <rect x="90" y="36" width="9" height="9"/>
  <rect x="108" y="36" width="9" height="9"/>
  <rect x="126" y="36" width="9" height="9"/>
  <rect x="144" y="36" width="9" height="9"/>
  <rect x="162" y="36" width="9" height="9"/>
  <rect x="171" y="36" width="9" height="9"/>
  <rect x="180" y="36" width="9" height="9"/>
  <rect x="198" y="36" width="9" height="9"/>
  <rect x="207" y="36" width="9" height="9"/>
  <rect x="216" y="36" width="9" height="9"/>
  <rect x="234" y="36" width="9" height="9"/>
  <rect x="243" y="36" width="9" height="9"/>
  <rect x="18" y="45" width="9" height="9"/>
  <rect x="0" y="54" width="9" height="9"/>
  <rect x="9" y="54" width="9" height="9"/>
  <rect x="18" y="54" width="9" height="9"/>
</svg>
