<svg xmlns="http://www.w3.org/2000/svg" viewBox="0 0 490 82" fill="currentColor">
  <!-- g -->
  <rect x="12" y="0" width="10" height="10"/>
  <rect x="24" y="0" width="10" height="10"/>
  <rect x="36" y="0" width="10" height="10"/>
  <rect x="0" y="12" width="10" height="10"/>
  <rect x="48" y="12" width="10" height="10"/>
  <rect x="0" y="24" width="10" height="10"/>
  <rect x="12" y="36" width="10" height="10"/>
  <rect x="24" y="36" width="10" height="10"/>
  <rect x="36" y="36" width="10" height="10"/>
  <rect x="48" y="36" width="10" height="10"/>
  <rect x="0" y="48" width="10" height="10"/>
  <rect x="36" y="48" width="10" height="10"/>
  <rect x="0" y="60" width="10" height="10"/>
  <rect x="36" y="60" width="10" height="10"/>
  <rect x="12" y="72" width="10" height="10"/>
  <rect x="24" y="72" width="10" height="10"/>
  <!-- o -->
  <rect x="84" y="12" width="10" height="10"/>
  <rect x="96" y="12" width="10" height="10"/>
  <rect x="108" y="12" width="10" height="10"/>
  <rect x="72" y="24" width="10" height="10"/>
  <rect x="120" y="24" width="10" height="10"/>
  <rect x="72" y="36" width="10" height="10"/>
  <rect x="120" y="36" width="10" height="10"/>
  <rect x="72" y="48" width="10" height="10"/>
  <rect x="120" y="48" width="10" height="10"/>
  <rect x="72" y="60" width="10" height="10"/>
  <rect x="120" y="60" width="10" height="10"/>
  <rect x="84" y="72" width="10" height="10"/>
  <rect x="96" y="72" width="10" height="10"/>
  <rect x="108" y="72" width="10" height="10"/>
  <!-- d -->
  <rect x="192" y="0" width="10" height="10"/>
  <rect x="192" y="12" width="10" height="10"/>
  <rect x="156" y="24" width="10" height="10"/>
  <rect x="168" y="24" width="10" height="10"/>
  <rect x="192" y="24" width="10" height="10"/>
  <rect x="144" y="36" width="10" height="10"/>
  <rect x="180" y="36" width="10" height="10"/>
  <rect x="192" y="36" width="10" height="10"/>
  <rect x="144" y="48" width="10" height="10"/>
  <rect x="192" y="48" width="10" height="10"/>
  <rect x="144" y="60" width="10" height="10"/>
  <rect x="192" y="60" width="10" height="10"/>
  <rect x="156" y="72" width="10" height="10"/>
  <rect x="168" y="72" width="10" height="10"/>
  <rect x="180" y="72" width="10" height="10"/>
  <!-- m -->
  <rect x="216" y="24" width="10" height="10"/>
  <rect x="264" y="24" width="10" height="10"/>
  <rect x="216" y="36" width="10" height="10"/>
  <rect x="228" y="36" width="10" height="10"/>
  <rect x="252" y="36" width="10" height="10"/>
  <rect x="264" y="36" width="10" height="10"/>
  <rect x="216" y="48" width="10" height="10"/>
  <rect x="240" y="48" width="10" height="10"/>
  <rect x="264" y="48" width="10" height="10"/>
  <rect x="216" y="60" width="10" height="10"/>
  <rect x="240" y="60" width="10" height="10"/>
  <rect x="264" y="60" width="10" height="10"/>
  <rect x="216" y="72" width="10" height="10"/>
  <rect x="240" y="72" width="10" height="10"/>
  <rect x="264" y="72" width="10" height="10"/>
  <!-- o -->
  <rect x="300" y="12" width="10" height="10"/>
  <rect x="312" y="12" width="10" height="10"/>
  <rect x="324" y="12" width="10" height="10"/>
  <rect x="288" y="24" width="10" height="10"/>
  <rect x="336" y="24" width="10" height="10"/>
  <rect x="288" y="36" width="10" height="10"/>
  <rect x="336" y="36" width="10" height="10"/>
  <rect x="288" y="48" width="10" height="10"/>
  <rect x="336" y="48" width="10" height="10"/>
  <rect x="288" y="60" width="10" height="10"/>
  <rect x="336" y="60" width="10" height="10"/>
  <rect x="300" y="72" width="10" height="10"/>
  <rect x="312" y="72" width="10" height="10"/>
  <rect x="324" y="72" width="10" height="10"/>
  <!-- d -->
  <rect x="408" y="0" width="10" height="10"/>
  <rect x="408" y="12" width="10" height="10"/>
  <rect x="372" y="24" width="10" height="10"/>
  <rect x="384" y="24" width="10" height="10"/>
  <rect x="408" y="24" width="10" height="10"/>
  <rect x="360" y="36" width="10" height="10"/>
  <rect x="396" y="36" width="10" height="10"/>
  <rect x="408" y="36" width="10" height="10"/>
  <rect x="360" y="48" width="10" height="10"/>
  <rect x="408" y="48" width="10" height="10"/>
  <rect x="360" y="60" width="10" height="10"/>
  <rect x="408" y="60" width="10" height="10"/>
  <rect x="372" y="72" width="10" height="10"/>
  <rect x="384" y="72" width="10" height="10"/>
  <rect x="396" y="72" width="10" height="10"/>
  <!-- e -->
  <rect x="444" y="12" width="10" height="10"/>
  <rect x="456" y="12" width="10" height="10"/>
  <rect x="468" y="12" width="10" height="10"/>
  <rect x="432" y="24" width="10" height="10"/>
  <rect x="480" y="24" width="10" height="10"/>
  <rect x="432" y="36" width="10" height="10"/>
  <rect x="444" y="36" width="10" height="10"/>
  <rect x="456" y="36" width="10" height="10"/>
  <rect x="468" y="36" width="10" height="10"/>
  <rect x="480" y="36" width="10" height="10"/>
  <rect x="432" y="48" width="10" height="10"/>
  <rect x="432" y="60" width="10" height="10"/>
  <rect x="480" y="60" width="10" height="10"/>
  <rect x="444" y="72" width="10" height="10"/>
  <rect x="456" y="72" width="10" height="10"/>
  <rect x="468" y="72" width="10" height="10"/>
</svg>
