<svg xmlns="http://www.w3.org/2000/svg" viewBox="0 0 306 63" fill="currentColor" shape-rendering="crispEdges">
  <rect x="36" y="0" width="9" height="9"/>
  <rect x="135" y="0" width="9" height="9"/>
  <rect x="261" y="0" width="9" height="9"/>
  <rect x="27" y="9" width="9" height="9"/>
  <rect x="135" y="9" width="9" height="9"/>
  <rect x="261" y="9" width="9" height="9"/>
  <rect x="18" y="18" width="9" height="9"/>
  <rect x="45" y="18" width="9" height="9"/>
  <rect x="54" y="18" width="9" height="9"/>
  <rect x="63" y="18" width="9" height="9"/>
  <rect x="81" y="18" width="9" height="9"/>
  <rect x="90" y="18" width="9" height="9"/>
  <rect x="99" y="18" width="9" height="9"/>
  <rect x="117" y="18" width="9" height="9"/>
  <rect x="126" y="18" width="9" height="9"/>
  <rect x="135" y="18" width="9" height="9"/>
  <rect x="153" y="18" width="9" height="9"/>
  <rect x="162" y="18" width="9" height="9"/>
  <rect x="171" y="18" width="9" height="9"/>
  <rect x="180" y="18" width="9" height="9"/>
  <rect x="189" y="18" width="9" height="9"/>
  <rect x="207" y="18" width="9" height="9"/>
  <rect x="216" y="18" width="9" height="9"/>
  <rect x="225" y="18" width="9" height="9"/>
  <rect x="243" y="18" width="9" height="9"/>
  <rect x="252" y="18" width="9" height="9"/>
  <rect x="261" y="18" width="9" height="9"/>
  <rect x="279" y="18" width="9" height="9"/>
  <rect x="288" y="18" width="9" height="9"/>
  <rect x="297" y="18" width="9" height="9"/>
  <rect x="9" y="27" width="9" height="9"/>
  <rect x="45" y="27" width="9" height="9"/>
  <rect x="63" y="27" width="9" height="9"/>
  <rect x="81" y="27" width="9" height="9"/>
  <rect x="99" y="27" width="9" height="9"/>
  <rect x="117" y="27" width="9" height="9"/>
  <rect x="135" y="27" width="9" height="9"/>
  <rect x="153" y="27" width="9" height="9"/>
  <rect x="171" y="27" width="9" height="9"/>
  <rect x="189" y="27" width="9" height="9"/>
  <rect x="207" y="27" width="9" height="9"/>
  <rect x="225" y="27" width="9" height="9"/>
  <rect x="243" y="27" width="9" height="9"/>
  <rect x="261" y="27" width="9" height="9"/>
  <rect x="279" y="27" width="9" height="9"/>
  <rect x="297" y="27" width="9" height="9"/>
  <rect x="0" y="36" width="9" height="9"/>
  <rect x="45" y="36" width="9" height="9"/>
  <rect x="54" y="36" width="9" height="9"/>
  <rect x="63" y="36" width="9" height="9"/>
  <rect x="81" y="36" width="9" height="9"/>
  <rect x="90" y="36" width="9" height="9"/>
  <rect x="99" y="36" width="9" height="9"/>
  <rect x="117" y="36" width="9" height="9"/>
  <rect x="126" y="36" width="9" height="9"/>
  <rect x="135" y="36" width="9" height="9"/>
  <rect x="153" y="36" width="9" height="9"/>
  <rect x="171" y="36" width="9" height="9"/>
  <rect x="189" y="36" width="9" height="9"/>
  <rect x="207" y="36" width="9" height="9"/>
  <rect x="216" y="36" width="9" height="9"/>
  <rect x="225" y="36" width="9" height="9"/>
  <rect x="243" y="36" width="9" height="9"/>
  <rect x="252" y="36" width="9" height="9"/>
  <rect x="261" y="36" width="9" height="9"/>
  <rect x="279" y="36" width="9" height="9"/>
  <rect x="288" y="36" width="9" height="9"/>
  <rect x="63" y="45" width="9" height="9"/>
  <rect x="45" y="54" width="9" height="9"/>
  <rect x="54" y="54" width="9" height="9"/>
  <rect x="63" y="54" width="9" height="9"/>
</svg>
