<svg xmlns="http://www.w3.org/2000/svg" viewBox="0 -32.708 185.375 212.865">
  <style>
    path { fill: #000; }
    @media (prefers-color-scheme: dark) {
      path { fill: #fff; }
    }
  </style>
  <path d="M178.893,117.535L97.889-2.767c-1.114-1.656-2.98-2.649-4.977-2.649s-3.862,0.993-4.978,2.649L6.929,117.535c-1.238,1.84-1.361,4.213-0.319,6.171c1.042,1.957,3.079,3.181,5.297,3.181h162.01c2.218,0,4.255-1.224,5.297-3.181C180.255,121.748,180.132,119.375,178.893,117.535z M92.911,99.027c-12.812,0-24.186-7.411-29.385-19.009C68.727,68.422,80.1,61.013,92.911,61.013c12.81,0.001,24.185,7.411,29.384,19.009C117.096,91.618,105.721,99.027,92.911,99.027z"/>
  <path d="M93.134,65.85c-7.814,0-14.171,6.357-14.171,14.171c0,7.813,6.356,14.169,14.171,14.169s14.172-6.355,14.172-14.169C107.306,72.207,100.948,65.85,93.134,65.85z"/>
</svg>
